<?xml version="1.0" standalone="no"?>
<!DOCTYPE svg PUBLIC "-//W3C//DTD SVG 20010904//EN"
 "http://www.w3.org/TR/2001/REC-SVG-20010904/DTD/svg10.dtd">
<svg version="1.0" xmlns="http://www.w3.org/2000/svg"
 width="512.000000pt" height="512.000000pt" viewBox="0 0 512.000000 512.000000"
 preserveAspectRatio="xMidYMid meet">

<g transform="translate(0.000000,512.000000) scale(0.100000,-0.100000)"
fill="#2b1f21" stroke="none">
<path d="M1350 5045 c-268 -61 -476 -252 -556 -510 -18 -58 -19 -135 -19
-1975 0 -1840 1 -1917 19 -1975 66 -214 231 -392 436 -473 101 -39 143 -46
270 -46 106 1 137 5 202 26 155 51 58 -26 2074 1649 436 362 476 407 540 595
35 103 43 263 20 374 -18 86 -87 233 -143 303 -21 26 -513 442 -1093 925 -580
482 -1085 902 -1121 932 -149 124 -284 179 -459 186 -71 2 -126 -1 -170 -11z"/>
</g>
</svg>
